<svg xmlns="http://www.w3.org/2000/svg" viewBox="0 0 60 55.426">
  <path d="M 27.713 1 l 1.732 -1 l 1.732 1 l -1.732 1 z" fill="#d82e1b" />
  <path d="M 24.249 3 l 3.464 -2 l 1.732 1 l -3.464 2 z" fill="#e64219" />
  <path d="M 29.445 2 l 1.732 -1 l 3.464 2 l -1.732 1 z" fill="#e64219" />
  <path d="M 25.981 4 l 3.464 -2 l 3.464 2 l -1.732 1 l -1.732 -1 l -1.732 1 z" fill="#8d8b8b" />
  <path d="M 22.517 4 l 1.732 -1 l 3.464 2 l -1.732 1 z" fill="#af1225" />
  <path d="M 32.909 4 l 1.732 -1 l 3.464 2 l -1.732 1 z" fill="#d82e1b" />
  <path d="M 20.785 5 l 1.732 -1 l 1.732 1 l -1.732 1 z" fill="#d82e1b" />
  <path d="M 27.713 5 l 1.732 -1 l 1.732 1 l -1.732 1 z" fill="#545454" />
  <path d="M 31.177 5 l 1.732 -1 l 1.732 1 l -1.732 1 z" fill="#af1225" />
  <path d="M 17.321 7 l 3.464 -2 l 1.732 1 l -3.464 2 z" fill="#e64219" />
  <path d="M 22.517 6 l 1.732 -1 l 3.464 2 l -1.732 1 z" fill="#e64219" />
  <path d="M 25.981 6 l 1.732 -1 l 1.732 1 l -1.732 1 z" fill="#922b11" />
  <path d="M 29.445 6 l 1.732 -1 l 1.732 1 l -1.732 1 z" fill="#922b11" />
  <path d="M 31.177 7 l 3.464 -2 l 1.732 1 l -3.464 2 z" fill="#e64219" />
  <path d="M 36.373 6 l 1.732 -1 l 3.464 2 l -1.732 1 z" fill="#e64219" />
  <path d="M 19.053 8 l 3.464 -2 l 3.464 2 l -1.732 1 l -1.732 -1 l -1.732 1 z" fill="#8d8b8b" />
  <path d="M 27.713 7 l 1.732 -1 l 1.732 1 l -1.732 1 z" fill="#545454" />
  <path d="M 32.909 8 l 3.464 -2 l 3.464 2 l -1.732 1 l -1.732 -1 l -1.732 1 z" fill="#8d8b8b" />
  <path d="M 15.588 8 l 1.732 -1 l 3.464 2 l -1.732 1 z" fill="#af1225" />
  <path d="M 25.981 8 l 1.732 -1 l 3.464 2 l -1.732 1 z" fill="#10131e" />
  <path d="M 29.445 8 l 1.732 -1 l 1.732 1 l -1.732 1 z" fill="#af1225" />
  <path d="M 32.909 4 l 1.732 -1 l 3.464 2 l -1.732 1 z" fill="#d82e1b" />

  <path d="M 20.785 9 l 1.732 -1 l 5.196 3 l -1.732 1 z" fill="#545454" />
</svg>